<svg preserveAspectRatio="none" width="100%" height="100%" overflow="visible" style="display: block;" viewBox="0 0 22.8693 20.5333" fill="none" xmlns="http://www.w3.org/2000/svg">
<g id="Icon_8_">
<path id="Shape" fill-rule="evenodd" clip-rule="evenodd" d="M11.864 20.5333C12.4162 20.5333 12.864 20.0856 12.864 19.5333V7.18272C12.864 6.31751 13.8882 5.8606 14.532 6.43863L20.1884 11.5172C20.5734 11.8629 21.1586 11.8578 21.5375 11.5053L22.068 11.0119C22.4984 10.6116 22.4924 9.92824 22.055 9.53557L12.1027 0.59981C11.7227 0.258593 11.1466 0.258593 10.7665 0.59981L0.828726 9.52252C0.386159 9.91988 0.386171 10.6134 0.828751 11.0107L1.33588 11.466C1.71465 11.8061 2.28841 11.8073 2.66868 11.469L8.34055 6.42221C8.98534 5.84848 10.0053 6.3062 10.0053 7.16928V19.5333C10.0053 20.0856 10.453 20.5333 11.0053 20.5333H11.864Z" fill="var(--fill-0, black)" fill-opacity="0.87"/>
</g>
</svg>
