<svg width="16" height="32" viewBox="0 0 16 32" fill="none" xmlns="http://www.w3.org/2000/svg">
<path d="M5.5 0H10.5C11.3313 0 12 0.66875 12 1.5V4H4V1.5C4 0.66875 4.66875 0 5.5 0ZM0 10.4688C0 9.25 0.625 8.11875 1.6625 7.475L2.65 6.85625C3.54375 6.29375 4.575 6 5.63125 6H10.3687C11.425 6 12.4563 6.29375 13.35 6.85625L14.3375 7.475C15.375 8.11875 16 9.25 16 10.4688C16 11.5312 15.5312 12.4875 14.7875 13.1313C15.5375 13.8563 16 14.875 16 16C16 17.1938 15.475 18.2687 14.6437 19C15.475 19.7313 16 20.8062 16 22C16 23.1938 15.475 24.2687 14.6437 25C15.475 25.7313 16 26.8062 16 28C16 30.2062 14.2063 32 12 32H4C1.79375 32 0 30.2062 0 28C0 26.8062 0.525 25.7313 1.35625 25C0.525 24.2687 0 23.1938 0 22C0 20.8062 0.525 19.7313 1.35625 19C0.525 18.2687 0 17.1938 0 16C0 14.875 0.4625 13.8563 1.2125 13.1313C0.46875 12.4813 0 11.5312 0 10.4688ZM4 15C4 15.55 4.45 16 5 16H11C11.55 16 12 15.55 12 15C12 14.45 11.55 14 11 14H5C4.45 14 4 14.45 4 15ZM5 22C4.45 22 4 22.45 4 23C4 23.55 4.45 24 5 24H11C11.55 24 12 23.55 12 23C12 22.45 11.55 22 11 22H5Z" fill="white"/>
</svg>
