<svg width="25" height="23" viewBox="0 0 25 23" fill="none" xmlns="http://www.w3.org/2000/svg">
<path d="M9.29683 22.312C10.3237 22.312 11.1562 21.4796 11.1562 20.4527C11.1562 19.4258 10.3237 18.5934 9.29683 18.5934C8.26995 18.5934 7.4375 19.4258 7.4375 20.4527C7.4375 21.4796 8.26995 22.312 9.29683 22.312Z" fill="white"/>
<path d="M22.312 22.312C23.3388 22.312 24.1713 21.4796 24.1713 20.4527C24.1713 19.4258 23.3388 18.5934 22.312 18.5934C21.2851 18.5934 20.4526 19.4258 20.4526 20.4527C20.4526 21.4796 21.2851 22.312 22.312 22.312Z" fill="white"/>
<path d="M24.6826 3.29915C24.552 3.13939 24.3875 3.01072 24.2009 2.92248C24.0144 2.83424 23.8106 2.78864 23.6042 2.789H5.92023L5.56405 0.768136C5.52607 0.552877 5.41346 0.357884 5.24599 0.217407C5.07852 0.07693 4.86691 -4.59263e-05 4.64833 2.05574e-08H0.929666C0.683103 2.05574e-08 0.446639 0.0979469 0.272293 0.272293C0.0979466 0.446639 0 0.683103 0 0.929666C0 1.17623 0.0979466 1.41269 0.272293 1.58704C0.446639 1.76138 0.683103 1.85933 0.929666 1.85933H3.86857L6.52161 16.8955C6.55959 17.1108 6.6722 17.3058 6.83967 17.4462C7.00713 17.5867 7.21874 17.6637 7.43733 17.6637H22.312C22.5585 17.6637 22.795 17.5657 22.9694 17.3914C23.1437 17.217 23.2416 16.9805 23.2416 16.734C23.2416 16.4874 23.1437 16.251 22.9694 16.0766C22.795 15.9023 22.5585 15.8043 22.312 15.8043H8.21708L7.88938 13.945H21.9308C22.2532 13.9446 22.5656 13.8328 22.815 13.6285C23.0645 13.4243 23.2357 13.1401 23.2998 12.8242L24.9731 4.45717C25.0135 4.25468 25.0083 4.04576 24.9581 3.8455C24.9078 3.64523 24.8138 3.45863 24.6826 3.29915Z" fill="white"/>
</svg>
