<svg width="20" height="20" viewBox="0 0 20 20" fill="none" xmlns="http://www.w3.org/2000/svg">
<path d="M10.162 20C9.847 20 9.583 19.8933 9.371 19.68C9.158 19.4667 9.051 19.203 9.051 18.8889C9.05 18.5749 9.156 18.3112 9.371 18.0978C9.585 17.8845 9.848 17.7778 10.162 17.7778H16.828V3.22222H10.162C9.847 3.22222 9.583 3.11556 9.371 2.90222C9.158 2.68889 9.051 2.42519 9.051 2.11111C9.05 1.79704 9.156 1.53333 9.371 1.32C9.585 1.10667 9.848 1 10.162 1H16.828C17.439 1 17.963 1.21778 18.398 1.65333C18.834 2.08889 19.051 2.61185 19.051 3.22222V18.7778C19.051 19.3889 18.833 19.9123 18.398 20.3478C17.963 20.7833 17.44 21.0007 16.828 21H10.162ZM8.134 12.1111H0.162C-0.153 12.1111 -0.417 12.0044 -0.629 11.7911C-0.842 11.5778 -0.949 11.3141 -0.949 11C-0.95 10.686 -0.844 10.4223 -0.629 10.2089C-0.415 9.99556 -0.152 9.88889 0.162 9.88889H8.134L6.051 7.80556C5.847 7.60185 5.745 7.35185 5.745 7.05556C5.745 6.75926 5.847 6.5 6.051 6.27778C6.254 6.05556 6.514 5.93963 6.828 5.93C7.143 5.92037 7.412 6.02704 7.634 6.25L11.606 10.2222C11.828 10.4444 11.939 10.7037 11.939 11C11.939 11.2963 11.828 11.5556 11.606 11.7778L7.634 15.75C7.412 15.9722 7.148 16.0789 6.843 16.07C6.538 16.0611 6.274 15.9452 6.051 15.7222C5.847 15.5 5.75 15.2363 5.759 14.9311C5.769 14.626 5.875 14.3711 6.078 14.1667L8.134 12.1111Z" fill="white"/>
</svg>

