<svg width="20" height="20" viewBox="0 0 20 20" fill="none" xmlns="http://www.w3.org/2000/svg">
<path d="M10 20C8.63333 20 7.34167 19.7373 6.125 19.2121C4.90833 18.6867 3.846 17.97 2.938 17.062C2.03 16.154 1.31333 15.0917 0.788 13.875C0.262667 12.6583 0 11.3667 0 10C0 8.61667 0.262667 7.321 0.788 6.113C1.31333 4.905 2.03 3.84667 2.938 2.938C3.846 3.02933 4.90833 2.31267 6.125 1.788C7.34167 1.26333 8.63333 1.00067 10 1C11.3833 1 12.6793 1.26267 13.888 1.788C15.0967 2.31333 16.1547 3.03 17.062 2.938C17.97 3.846 18.6867 4.90433 19.212 6.113C19.7373 7.32167 20 8.61733 20 10C20 11.3667 19.7373 12.6583 19.212 13.875C18.6867 15.0917 17.97 16.154 17.062 17.062C16.154 17.97 15.0963 18.6867 13.888 19.212C12.6797 19.7373 11.384 20 10 20ZM10 17.95C10.4333 17.35 10.8083 16.725 11.125 16.075C11.4417 15.425 11.7 14.7333 11.9 14H8.1C8.3 14.7333 8.55833 15.425 8.875 16.075C9.19167 16.725 9.56667 17.35 10 17.95ZM7.4 17.55C7.1 17 6.83833 16.429 6.61333 15.837C6.38867 15.245 6.201 14.6327 6.05 14H3.1C3.58333 14.8333 4.18767 15.5583 4.913 16.175C5.63833 16.7917 6.46733 17.25 7.4 17.55ZM12.6 17.55C13.5333 17.25 14.3627 16.7917 15.088 16.175C15.8133 15.5583 16.4177 14.8333 16.9 14H13.95C13.8 14.6333 13.6133 15.246 13.388 15.838C13.1633 16.43 12.901 17 12.6 17.55ZM2.3 13H5.7C5.65 12.6667 5.61333 12.3377 5.58833 12.013C5.56333 11.6883 5.551 11.3507 5.55 11C5.54933 10.6493 5.562 10.312 5.58833 9.988C5.61467 9.664 5.65167 9.33467 5.7 9H2.3C2.21667 9.33333 2.15433 9.66267 2.113 9.988C2.07167 10.3133 2.051 10.6507 2.05 11C2.04933 11.3493 2.07033 11.687 2.113 12.013C2.15567 12.339 2.218 12.668 2.3 13ZM7.7 13H12.4C12.45 12.6667 12.4883 12.3377 12.5133 12.013C12.5383 11.6883 12.551 11.3507 12.55 11C12.5493 10.6493 12.537 10.312 12.512 9.988C12.487 9.664 12.45 9.33467 12.4 9H7.7C7.65 9.33333 7.61333 9.66267 7.58833 9.988C7.56333 10.3133 7.551 10.6507 7.55 11C7.54933 11.3493 7.562 11.687 7.58833 12.013C7.61467 12.339 7.65167 12.668 7.7 13ZM14.4 13H17.8C17.8833 12.6667 17.946 12.3377 17.988 12.013C18.03 11.6883 18.051 11.3507 18.05 11C18.0493 10.6493 18.029 10.312 17.988 9.988C17.947 9.664 17.885 9.33467 17.8 9H14.4C14.45 9.33333 14.4883 9.66267 14.5133 9.988C14.5383 10.3133 14.551 10.6507 14.55 11C14.5493 11.3493 14.537 11.687 14.512 12.013C14.487 12.339 14.45 12.668 14.4 13ZM14 7H16.95C16.467 6.16667 15.863 5.44167 15.138 4.825C14.413 4.20833 13.584 3.75 12.65 3.45C12.95 4 13.2133 4.571 13.438 5.163C13.663 5.755 13.851 6.36733 14 7ZM8.15 7H12C11.8 6.26667 11.542 5.575 11.225 4.925C10.908 4.275 10.533 3.65 10.1 3.05C9.66667 3.65 9.29167 4.275 8.975 4.925C8.65833 5.575 8.4 6.26667 8.15 7ZM3.15 7H6.1C6.25 6.36667 6.438 5.754 6.66333 5.162C6.88867 4.57 7.151 3.99933 7.45 3.45C6.517 3.75 5.688 4.20833 4.963 4.825C4.238 5.44167 3.634 6.16667 3.15 7Z" fill="white"/>
</svg>
